<svg width="43" height="17" viewBox="0 0 43 17" fill="none" xmlns="http://www.w3.org/2000/svg">
<g clip-path="url(#clip0_61_5)">
<path d="M40.78 10.1442V8.76713V6.01513H36.78H34.114V4.63809H40.78V1.88609H34.114H30.114V4.63809V6.01513V8.76713H34.114H36.78V10.1442H30.114V12.8962H36.78H40.78V10.1442ZM41.834 9.28326V13.7571C41.834 13.8479 41.798 13.9367 41.736 14.0007C41.674 14.0647 41.588 14.1018 41.5 14.1018H37.166V14.7893H42.166C42.254 14.7893 42.34 14.7522 42.402 14.6882C42.464 14.6242 42.5 14.5354 42.5 14.4445V9.28326H41.834ZM5.834 0.337708H0.834C0.746 0.337708 0.66 0.374869 0.598 0.438869C0.536 0.502869 0.5 0.591643 0.5 0.682482V5.84377H1.166V1.36997C1.166 1.27913 1.202 1.19035 1.264 1.12635C1.326 1.06235 1.412 1.02519 1.5 1.02519H5.834V0.337708ZM10.114 16.3377H12.78V10.1442H10.114V16.3377ZM12.448 1.88609H6.114V4.63809H10.114V8.76713H12.78V2.2288C12.78 2.13797 12.744 2.04919 12.682 1.98519C12.62 1.92119 12.534 1.88403 12.446 1.88403L12.448 1.88609ZM4.782 1.88609H2.448C2.36 1.88609 2.274 1.92326 2.212 1.98726C2.15 2.05126 2.114 2.14003 2.114 2.23087V12.5534C2.114 12.6443 2.15 12.7331 2.212 12.7971C2.274 12.8611 2.36 12.8982 2.448 12.8982H8.782V10.1462H4.782V1.88816V1.88609ZM6.116 8.76713H8.782V6.01513H6.116V8.76713ZM6.782 6.70261H8.116V8.07964H6.782V6.70261ZM14.116 1.88609V4.63809H22.116V6.01513H16.782H14.116V8.76713V12.8962H16.782V8.80842L20.782 12.8962H24.782L20.608 8.76713H22.114H24.78V6.01513V4.63809V1.88609H22.114H14.114H14.116ZM26.116 12.8962H28.782V1.88609H26.116V12.8962Z" fill="white"/>
</g>
<defs>
<clipPath id="clip0_61_5">
<rect width="42" height="16" fill="white" transform="translate(0.5 0.337708)"/>
</clipPath>
</defs>
</svg>
